<mxfile host="app.diagrams.net" modified="2023-12-12T08:41:25.468Z" agent="Mozilla/5.0 (Windows NT 10.0; Win64; x64) AppleWebKit/537.36 (KHTML, like Gecko) Chrome/120.0.0.0 Safari/537.36" version="22.1.7" etag="vXCCfk_nJ32uy78nGJeU" type="github">
  <diagram name="페이지-1" id="v4iYL3eAFgi83E51nEzz">
    <mxGraphModel>
      <root>
        <mxCell id="0" />
        <mxCell id="1" parent="0" />
      </root>
    </mxGraphModel>
  </diagram>
</mxfile>
